<?xml version="1.0" encoding="UTF-8" standalone="no"?>
<svg
   xmlns:dc="http://purl.org/dc/elements/1.1/"
   xmlns:cc="http://creativecommons.org/ns#"
   xmlns:rdf="http://www.w3.org/1999/02/22-rdf-syntax-ns#"
   xmlns:svg="http://www.w3.org/2000/svg"
   xmlns="http://www.w3.org/2000/svg"
   xmlns:sodipodi="http://sodipodi.sourceforge.net/DTD/sodipodi-0.dtd"
   xmlns:inkscape="http://www.inkscape.org/namespaces/inkscape"
   version="1.1"
   id="Layer_1"
   x="0px"
   y="0px"
   width="100"
   height="75.445999"
   viewBox="0 0 100 75.446"
   enable-background="new 0 0 100 75.446"
   xml:space="preserve"
   inkscape:version="0.48.1 r9760"
   sodipodi:docname="noun_project_987.svg"
   style="display:inline"
   inkscape:export-filename="/Users/artur/Downloads/noun_project_987.png"
   inkscape:export-xdpi="461.79001"
   inkscape:export-ydpi="461.79001"><metadata
   id="metadata3000"><rdf:RDF><cc:Work
       rdf:about=""><dc:format>image/svg+xml</dc:format><dc:type
         rdf:resource="http://purl.org/dc/dcmitype/StillImage" /><dc:title></dc:title></cc:Work></rdf:RDF></metadata><defs
   id="defs2998" /><sodipodi:namedview
   pagecolor="#ffffff"
   bordercolor="#666666"
   borderopacity="1"
   objecttolerance="10"
   gridtolerance="10"
   guidetolerance="10"
   inkscape:pageopacity="0"
   inkscape:pageshadow="2"
   inkscape:window-width="1233"
   inkscape:window-height="756"
   id="namedview2996"
   showgrid="false"
   inkscape:zoom="3.8703179"
   inkscape:cx="18.736418"
   inkscape:cy="37.464623"
   inkscape:window-x="47"
   inkscape:window-y="119"
   inkscape:window-maximized="1"
   inkscape:current-layer="Layer_1" />
<g
   id="g2986">
	<path
   d="m 19.198,44.002 v -8.201 h -8.575 c -3.319,0 -6.021,-2.874 -6.021,-6.406 V 10.903 c 0,-3.533 2.701,-6.408 6.021,-6.408 h 38.345 c 3.319,0 6.019,2.875 6.019,6.408 v 18.492 c 0,3.532 -2.7,6.406 -6.019,6.406 v 4.496 c 5.797,0 10.514,-4.891 10.514,-10.902 V 10.903 C 59.482,4.892 54.766,0 48.968,0 H 10.623 C 4.824,0 0.107,4.892 0.107,10.903 v 18.492 c 0,6.011 4.717,10.902 10.516,10.902 h 4.08 v 7.968 c 0,1.223 0.789,2.332 1.963,2.764 0.334,0.123 0.677,0.184 1.014,0.184 0.821,0 1.609,-0.354 2.165,-1.01 l 8.369,-9.905 h 8.353 V 35.802 H 26.128 l -6.93,8.2 z"
   id="path2988"
   inkscape:connector-curvature="0" />
	<path
   d="m 89.377,24.233 h -25.96 v 4.496 h 25.96 c 3.319,0 6.021,2.875 6.021,6.408 v 18.489 c 0,3.533 -2.701,6.408 -6.021,6.408 h -8.574 v 8.205 L 73.872,60.036 H 51.031 c -3.318,0 -6.019,-2.875 -6.019,-6.408 V 35.137 c 0,-3.533 2.701,-6.408 6.019,-6.408 v -4.496 c -5.797,0 -10.515,4.892 -10.515,10.903 v 18.491 c 0,6.014 4.717,10.904 10.515,10.904 h 20.754 l 8.372,9.91 c 0.555,0.652 1.342,1.004 2.161,1.004 0.337,0 0.68,-0.059 1.014,-0.182 1.176,-0.432 1.967,-1.543 1.967,-2.768 V 64.53 h 4.078 c 5.799,0 10.516,-4.891 10.516,-10.904 V 35.137 c 0,-6.012 -4.717,-10.904 -10.516,-10.904 z"
   id="path2990"
   inkscape:connector-curvature="0" />
	<path
   d="M 26.532,7.437 18.58,28.388 h 4.665 l 1.644,-4.665 h 7.834 l 1.584,4.665 h 4.782 L 31.255,7.437 h -4.723 z m -0.439,12.853 2.729,-7.688 h 0.058 l 2.641,7.688 h -5.428 z"
   id="path2992"
   inkscape:connector-curvature="0" />
	<path
   d="m 60.12,49.114 c 0,2.297 1.468,3.787 3.862,3.787 2.876,-0.061 5.721,-1.887 6.647,-2.711 0.926,-0.826 3.42,-3.693 4.521,-5.963 1.393,0.658 2.053,1.76 2.053,2.98 0,2.639 -2.542,4.17 -6.599,4.635 l 1.968,2.725 c 6.354,-0.832 8.516,-3.5 8.516,-7.408 0,-3.301 -2.077,-5.305 -4.74,-6.183 0.049,-0.242 0.138,-0.495 0.188,-0.74 l -3.611,-0.643 c -0.024,0.365 -0.097,0.432 -0.168,0.798 -1.297,-0.074 -2.738,0.121 -3.202,0.219 0,-0.66 0.024,-2.421 0.049,-3.055 3.006,-0.122 5.962,-0.365 8.699,-0.781 l -0.318,-3.566 c -2.81,0.562 -5.523,0.856 -8.186,1.003 0.072,-0.71 0.172,-2.717 0.172,-2.717 l -3.813,-0.291 c -0.05,0.978 -0.072,2.127 -0.121,3.128 -1.688,0.024 -3.689,0.024 -4.742,0 l 0.171,3.446 h 0.414 c 1.003,0 2.641,-0.051 4.109,-0.099 0,0.952 0.023,3.005 0.048,3.934 -3.448,1.439 -5.917,4.105 -5.917,7.502 z M 71.606,43.59 c -0.514,1.025 -1.124,1.957 -1.808,2.736 -0.1,-0.807 -0.148,-1.637 -0.196,-2.516 0.268,-0.048 1.343,-0.22 2.004,-0.22 z m -5.377,1.418 c 0.123,1.369 0.27,2.688 0.489,3.885 -0.634,0.318 -1.244,0.514 -1.809,0.539 -1.223,0.049 -1.223,-0.732 -1.223,-1.076 10e-4,-1.297 1.003,-2.492 2.543,-3.348 z"
   id="path2994"
   inkscape:connector-curvature="0" />
</g>
<g
   inkscape:groupmode="layer"
   id="layer1"
   inkscape:label="Layer"
   style="display:none" /><g
   inkscape:groupmode="layer"
   id="layer2"
   inkscape:label="Layer#1"
   style="display:inline"><path
     sodipodi:type="arc"
     style="fill:#ff0000"
     id="path3010"
     sodipodi:cx="52.450474"
     sodipodi:cy="38.627319"
     sodipodi:rx="36.689491"
     sodipodi:ry="37.077057"
     d="m 89.139965,38.627319 a 36.689491,37.077057 0 1 1 -73.378982,0 36.689491,37.077057 0 1 1 73.378982,0 z"
     transform="matrix(1.1725353,0,0,1.1184669,-11.76251,-5.351189)" /></g><g
   id="g3052">
	<path
   inkscape:connector-curvature="0"
   id="path3054"
   d="m 19.198,44.002 v -8.201 h -8.575 c -3.319,0 -6.021,-2.874 -6.021,-6.406 V 10.903 c 0,-3.533 2.701,-6.408 6.021,-6.408 h 38.345 c 3.319,0 6.019,2.875 6.019,6.408 v 18.492 c 0,3.532 -2.7,6.406 -6.019,6.406 v 4.496 c 5.797,0 10.514,-4.891 10.514,-10.902 V 10.903 C 59.482,4.892 54.766,0 48.968,0 H 10.623 C 4.824,0 0.107,4.892 0.107,10.903 v 18.492 c 0,6.011 4.717,10.902 10.516,10.902 h 4.08 v 7.968 c 0,1.223 0.789,2.332 1.963,2.764 0.334,0.123 0.677,0.184 1.014,0.184 0.821,0 1.609,-0.354 2.165,-1.01 l 8.369,-9.905 h 8.353 V 35.802 H 26.128 l -6.93,8.2 z" />
	<path
   inkscape:connector-curvature="0"
   id="path3056"
   d="m 89.377,24.233 h -25.96 v 4.496 h 25.96 c 3.319,0 6.021,2.875 6.021,6.408 v 18.489 c 0,3.533 -2.701,6.408 -6.021,6.408 h -8.574 v 8.205 L 73.872,60.036 H 51.031 c -3.318,0 -6.019,-2.875 -6.019,-6.408 V 35.137 c 0,-3.533 2.701,-6.408 6.019,-6.408 v -4.496 c -5.797,0 -10.515,4.892 -10.515,10.903 v 18.491 c 0,6.014 4.717,10.904 10.515,10.904 h 20.754 l 8.372,9.91 c 0.555,0.652 1.342,1.004 2.161,1.004 0.337,0 0.68,-0.059 1.014,-0.182 1.176,-0.432 1.967,-1.543 1.967,-2.768 V 64.53 h 4.078 c 5.799,0 10.516,-4.891 10.516,-10.904 V 35.137 c 0,-6.012 -4.717,-10.904 -10.516,-10.904 z" />
	<path
   inkscape:connector-curvature="0"
   id="path3058"
   d="M 26.532,7.437 18.58,28.388 h 4.665 l 1.644,-4.665 h 7.834 l 1.584,4.665 h 4.782 L 31.255,7.437 h -4.723 z m -0.439,12.853 2.729,-7.688 h 0.058 l 2.641,7.688 h -5.428 z" />
	<path
   inkscape:connector-curvature="0"
   id="path3060"
   d="m 60.12,49.114 c 0,2.297 1.468,3.787 3.862,3.787 2.876,-0.061 5.721,-1.887 6.647,-2.711 0.926,-0.826 3.42,-3.693 4.521,-5.963 1.393,0.658 2.053,1.76 2.053,2.98 0,2.639 -2.542,4.17 -6.599,4.635 l 1.968,2.725 c 6.354,-0.832 8.516,-3.5 8.516,-7.408 0,-3.301 -2.077,-5.305 -4.74,-6.183 0.049,-0.242 0.138,-0.495 0.188,-0.74 l -3.611,-0.643 c -0.024,0.365 -0.097,0.432 -0.168,0.798 -1.297,-0.074 -2.738,0.121 -3.202,0.219 0,-0.66 0.024,-2.421 0.049,-3.055 3.006,-0.122 5.962,-0.365 8.699,-0.781 l -0.318,-3.566 c -2.81,0.562 -5.523,0.856 -8.186,1.003 0.072,-0.71 0.172,-2.717 0.172,-2.717 l -3.813,-0.291 c -0.05,0.978 -0.072,2.127 -0.121,3.128 -1.688,0.024 -3.689,0.024 -4.742,0 l 0.171,3.446 h 0.414 c 1.003,0 2.641,-0.051 4.109,-0.099 0,0.952 0.023,3.005 0.048,3.934 -3.448,1.439 -5.917,4.105 -5.917,7.502 z M 71.606,43.59 c -0.514,1.025 -1.124,1.957 -1.808,2.736 -0.1,-0.807 -0.148,-1.637 -0.196,-2.516 0.268,-0.048 1.343,-0.22 2.004,-0.22 z m -5.377,1.418 c 0.123,1.369 0.27,2.688 0.489,3.885 -0.634,0.318 -1.244,0.514 -1.809,0.539 -1.223,0.049 -1.223,-0.732 -1.223,-1.076 10e-4,-1.297 1.003,-2.492 2.543,-3.348 z" />
</g></svg>